<?xml version="1.0" encoding="UTF-8" standalone="no"?>
<svg
   xmlns:dc="http://purl.org/dc/elements/1.1/"
   xmlns:cc="http://creativecommons.org/ns#"
   xmlns:rdf="http://www.w3.org/1999/02/22-rdf-syntax-ns#"
   xmlns:svg="http://www.w3.org/2000/svg"
   xmlns="http://www.w3.org/2000/svg"
   xmlns:sodipodi="http://sodipodi.sourceforge.net/DTD/sodipodi-0.dtd"
   xmlns:inkscape="http://www.inkscape.org/namespaces/inkscape"
   width="300mm"
   height="100mm"
   viewBox="0 0 300 100"
   version="1.1"
   id="svg8"
   inkscape:version="1.0 (4035a4fb49, 2020-05-01)"
   sodipodi:docname="logo.svg">
  <defs
     id="defs2">
    <rect
       x="246.44048"
       y="34.017857"
       width="52.160714"
       height="40.065477"
       id="rect58" />
    <rect
       x="248.70833"
       y="42.333333"
       width="46.113095"
       height="27.970238"
       id="rect52" />
    <rect
       x="-369.66071"
       y="-62.744048"
       width="141.3631"
       height="161.01786"
       id="rect46" />
    <rect
       x="-272.14286"
       y="-105.07738"
       width="117.17262"
       height="26.458333"
       id="rect40" />
    <rect
       x="105.07738"
       y="13.607143"
       width="182.94048"
       height="36.285714"
       id="rect34" />
  </defs>
  <sodipodi:namedview
     id="base"
     pagecolor="#ffffff"
     bordercolor="#666666"
     borderopacity="1.0"
     inkscape:pageopacity="1"
     inkscape:pageshadow="2"
     inkscape:zoom="0.35"
     inkscape:cx="400"
     inkscape:cy="560"
     inkscape:document-units="mm"
     inkscape:current-layer="layer1"
     inkscape:document-rotation="0"
     showgrid="false"
     inkscape:window-width="1920"
     inkscape:window-height="1017"
     inkscape:window-x="-8"
     inkscape:window-y="-8"
     inkscape:window-maximized="1" />
  <metadata
     id="metadata5">
    <rdf:RDF>
      <cc:Work
         rdf:about="">
        <dc:format>image/svg+xml</dc:format>
        <dc:type
           rdf:resource="http://purl.org/dc/dcmitype/StillImage" />
        <dc:title />
      </cc:Work>
    </rdf:RDF>
  </metadata>
  <g
     inkscape:label="Layer 1"
     inkscape:groupmode="layer"
     id="layer1">
    <circle
       id="path10"
       style="fill:#000000;stroke:#000000;stroke-width:0.264583"
       cx="294.06549"
       cy="-55.940475"
       r="0.19981238" />
    <text
       xml:space="preserve"
       id="text32"
       style="font-size:12.7px;line-height:2.45;font-family:sans-serif;white-space:pre;shape-inside:url(#rect34);fill:#f2f2f2;"
       transform="matrix(1.3339399,0,0,1.5377022,-39.753885,14.002466)"><tspan
         x="105.07812"
         y="32.814017"><tspan
           style="font-size:12.7px;fill:#f2f2f2">tewart Brownlee </tspan></tspan></text>
    <text
       xml:space="preserve"
       id="text38"
       style="font-size:16.93333333px;line-height:2.45;font-family:sans-serif;white-space:pre;shape-inside:url(#rect40);"><tspan
         style="visibility:hidden"
         x="-272.14258"
         y="-53.010348"><tspan
           dx="0 9.4257631 11.178624"
           style="font-size:16.9333px">LAW</tspan></tspan></text>
    <text
       xml:space="preserve"
       id="text44"
       style="line-height:2.45;font-family:sans-serif;font-size:10.58333333px;white-space:pre;shape-inside:url(#rect46);" />
    <text
       xml:space="preserve"
       id="text50"
       style="font-size:16.9333px;line-height:2.45;font-family:sans-serif;white-space:pre;shape-inside:url(#rect52);fill:#008000;"><tspan
         style="visibility:hidden"
         x="248.70898"
         y="95.911478"><tspan
           dx="0 9.4257631 11.178624"
           style="font-size:16.9333px;fill:#008000">LAW</tspan></tspan></text>
    <text
       xml:space="preserve"
       id="text56"
       style="font-style:normal;font-variant:normal;font-weight:bold;font-stretch:normal;font-size:14.1111px;line-height:2.45;font-family:sans-serif;-inkscape-font-specification:'sans-serif Bold';white-space:pre;shape-inside:url(#rect58);fill:#008000;"
       transform="matrix(1.6232296,0,0,1.6631494,-175.61507,-24.61553)"><tspan
         x="246.44141"
         y="55.358223"><tspan
           style="font-style:normal;font-variant:normal;font-weight:bold;font-stretch:normal;font-size:14.1111px;font-family:sans-serif;-inkscape-font-specification:'sans-serif Bold';fill:#008000">LAW</tspan></tspan></text>
    <path
       id="path45"
       d="m -299.46115,265.52425 c 0.56574,-5.01924 1.21076,-5.44615 9.10144,-6.0239 16.39317,-1.20027 37.24479,-5.56204 50.9366,-10.65499 13.15036,-4.89155 27.46568,-13.16658 27.46568,-15.87665 0,-1.87985 -7.81251,-4.95185 -15.38707,-6.05043 -3.80244,-0.55149 -14.39746,-1.54467 -23.54448,-2.20708 -19.92705,-1.44307 -25.99593,-2.69568 -27.60222,-5.69706 -0.99398,-1.85726 2.39196,-13.18474 4.66627,-15.61076 8.20733,-8.7548 45.01993,-24.9714 59.22166,-26.08819 2.7964,-0.2199 3.0416,-0.0835 3.26036,1.81355 0.1301,1.12823 -0.46329,3.63342 -1.31865,5.56708 -1.46505,3.312 -1.6978,3.49438 -4.0163,3.147 -6.86096,-1.02797 -22.94976,3.42352 -36.22221,10.02205 -9.15593,4.55197 -19.15558,11.26892 -19.15558,12.86716 0,2.73126 15.66583,5.38609 37.79762,6.40543 16.39641,0.75519 25.40913,3.10776 27.60183,7.20483 2.55115,4.76689 -1.30396,15.58952 -6.92908,19.45229 -9.42387,6.47135 -27.97453,14.2659 -42.75402,17.96422 -12.01995,3.0078 -35.33674,7.16483 -40.19412,7.16601 l -3.31111,8.1e-4 z m 89.01562,-28.77122 c 0,-0.6482 -0.34018,-0.9683 -0.75595,-0.71134 -0.41577,0.25696 -0.75595,0.7873 -0.75595,1.17854 0,0.39124 0.34018,0.71134 0.75595,0.71134 0.41577,0 0.75595,-0.53035 0.75595,-1.17854 z m -65.0119,-20.83331 c 0,-0.83155 -0.34018,-1.30166 -0.75595,-1.0447 -0.41578,0.25696 -0.75596,1.14756 -0.75596,1.97911 0,0.83155 0.34018,1.30166 0.75596,1.0447 0.41577,-0.25696 0.75595,-1.14756 0.75595,-1.97911 z"
       style="fill:#000000;stroke-width:0.755952" />
    <path
       id="path68"
       d="M 3.26629,92.536713 C 4.07493,87.553664 3.50092,87.780153 20.41071,85.771867 41.68501,83.245226 59.83642,78.237193 75.21726,70.65056 86.16818,65.248993 91.26831,61.498429 90.47474,59.430417 89.81633,57.714633 84.33231,55.344549 78.02944,54.051811 75.23542,53.478747 64.34487,52.286018 53.82822,51.401302 34.60355,49.784021 27.01776,48.484953 24.97833,46.460751 24.06621,45.555437 24.02176,44.673504 24.72039,41.342765 26.85994,31.142389 30.14604,27.813889 46.0604,19.727378 67.58413,8.790597 89.69547,2.0695382 90.54706,6.20502 c 0.14625,0.710232 -0.41752,2.836348 -1.25283,4.724703 l -1.51874,3.433372 -4.38923,0.0053 c -11.3496,0.0137 -32.05927,7.644664 -46.41652,17.103268 -6.22993,4.104291 -7.288,5.274966 -6.25199,6.91737 1.51752,2.405774 12.60426,4.288605 34.40229,5.842452 20.291,1.446417 28.04841,3.283874 30.10755,7.131408 2.43131,4.542951 -1.3467,14.903759 -6.91792,18.97168 C 80.38022,76.124416 59.80529,84.674754 44.78392,88.422617 33.83858,91.153508 10.66233,95.250011 6.1575,95.250011 H 2.82599 Z m 88.9599,-28.658738 c 0,-0.62366 -0.51027,-1.133927 -1.13393,-1.133927 -0.62366,0 -1.13393,0.510267 -1.13393,1.133927 0,0.62366 0.51027,1.13393 1.13393,1.13393 0.62366,0 1.13393,-0.51027 1.13393,-1.13393 z M 27.08891,43.134862 c 0.17163,-1.172679 -0.0707,-1.619335 -0.75595,-1.393481 -0.55471,0.182819 -1.12223,1.109046 -1.26115,2.058281 -0.17164,1.172675 0.0707,1.619334 0.75595,1.393481 0.5547,-0.182822 1.12222,-1.109046 1.26115,-2.058281 z"
       style="fill:#f2f2f2;fill-opacity:1;stroke-width:0.755952" />
  </g>
</svg>
